#!OML:ASF F:\VICON\USERDATA\INSTALL\rory3\rory3.ASF
:FULLY-SPECIFIED
:DEGREES
46
root 0.8886651279654778 17.596880017818357 12.34121411017614 4.02478370463299 -9.804140012013177 -1.6998105412944309
lfemur -6.11361797945402 4.677971503317793 -21.16495211487773
ltibia 88.6463914590458
lfoot 15.121088180735043 -8.804980983157584
ltoes -11.672339283795138
rfemur -27.59087590912185 2.1448267887714243 31.43003843975804
rtibia 48.46285962637341
rfoot -10.455723508521643 -1.5771755247445904
rtoes 11.920700307749588
lowerback 15.377376451866024 0.010107952434586842 1.27303915154376
upperback -0.31201759528833983 0.29484361447669327 1.489954626110334
thorax -7.606214120858125 0.1507609682391432 1.2963486930339
lowerneck -18.63864807915013 -2.6129938778669275 -3.018575672764358
upperneck 8.593960029208759 -3.007088803232941 3.4584324088816327
head 5.7270309595761395 -1.265780335150651 1.2870211256457684
lclavicle -1.545903570008907e-15 -3.2973197488200642e-15
lhumerus -42.60949456255748 -10.372660547071577 90.40724046603422
lradius 102.72135083486314
lwrist 28.770166878639913
lhand -24.603502702581675 0.007079972806495416
lfingers 7.12502
lthumb 2.61613356865739 30.590414969888997
rclavicle -1.5384094088232288e-15 -3.293227271127483e-15
rhumerus -60.89292549713477 1.56143542204061 -95.41224729068648
rradius 111.50538395187314
rwrist -22.64514020917635
rhand -18.151084123964537 38.6873292976199
rfingers 7.12502
rthumb 7.805431428491108 10.510162830542212
47
root 0.8501892960716209 17.45095045230052 13.349940515642748 3.932837660184031 -10.46603259120607 -3.2395087004719625
lfemur -8.963777458519388 7.709249664181015 -17.42296401271932
ltibia 96.03327757609188
lfoot 12.48333473548143 -8.385245986568794
ltoes -9.6543856586111
rfemur -25.821294895114033 4.752903517360903 33.32365991997979
rtibia 53.42988869829422
rfoot -14.460483474319197 -5.9645865635484645
rtoes 11.084992327937165
lowerback 15.83507806372035 0.3330718371051675 2.412001644809841
upperback -0.2674698362416471 1.0212466772769127 2.1682460753819957
thorax -7.9878746317930664 0.4706742442061409 1.052041308919251
lowerneck -18.715873837033204 -2.7665279141230776 -3.0117411186824823
upperneck 8.625338276375754 -3.220588643849208 3.4165606903906904
head 5.873854542424121 -1.3609223296103108 1.2245914020361641
lclavicle -1.544018162658373e-15 -3.2959293454251546e-15
lhumerus -44.39053750189651 -10.047340961056953 90.9643936570816
lradius 101.99922102713721
lwrist 28.44647659263232
lhand -24.74896404860724 1.6012888952359912
lfingers 7.12502
lthumb 2.528151064664904 31.912673168803796
rclavicle -1.5364022680155948e-15 -3.2915874926468634e-15
rhumerus -58.48700338668285 2.5812324575960837 -95.930728215426
rradius 110.24960241209662
rwrist -23.4366052468851
rhand -18.49106439650974 38.38926073886007
rfingers 7.12502
rthumb 7.576650913636846 9.616590108868472
48
root 0.8226650657477648 17.33296476219082 14.492752015291078 4.683523722537144 -10.366754109356732 -5.536409113283657
lfemur -12.592531616497594 9.583148122723141 -12.82188903095765
ltibia 102.02029049678103
lfoot 9.862667011673683 -8.304038567262563
ltoes -4.674054011874505
rfemur -23.909368985927856 7.374573932790367 35.898305015765246
rtibia 56.03008778484155
rfoot -17.73974823103048 -10.940119428300537
rtoes 8.183044895442208
lowerback 15.943582330793735 0.40491670385015 4.43179077104569
upperback -0.47644959530292286 1.5969991257123386 3.0678441589502197
thorax -8.300433122589292 0.6802567660659384 0.42250855229203815
lowerneck -18.887371717522196 -2.9352149703020958 -2.9943967413106654
upperneck 8.631842464743292 -3.4715457251059307 3.426971288439974
head 5.9948624062857245 -1.4681388823655503 1.1581361238698997
lclavicle -1.5431613519867377e-15 -3.295308813767153e-15
lhumerus -46.25966575193943 -9.473586340755768 91.11222897383865
lradius 101.74064944302592
lwrist 27.46613433980248
lhand -24.63973209944612 2.77741804225235
lfingers 7.12502
lthumb 2.5939442783804445 33.59553892641613
rclavicle -1.5386220932758543e-15 -3.293118576378209e-15
rhumerus -55.66364164034598 4.032836944184745 -96.51471851763847
rradius 109.27432358014589
rwrist -24.184377398871128
rhand -18.90237957796697 38.53529759636901
rfingers 7.12502
rthumb 7.192342536126381 8.645731284867782
49
root 0.8068023900017042 17.273392463900006 15.284434935478686 5.057451216594662 -8.734589913482052 -5.675546711904012
lfemur -16.921878441797528 8.89475347973669 -11.86086383591704
ltibia 106.14222188403913
lfoot 7.729647758825401 -8.015232346072024
ltoes -1.1532329982528218
rfemur -21.770807253730716 7.499626922299287 35.80884855279958
rtibia 57.65542669838416
rfoot -20.281482137083394 -14.452250686627952
rtoes 5.636765509053499
lowerback 15.69537163831591 0.22257072171111802 4.504531989810596
upperback -0.36489380281811984 1.3568274301678542 3.137896451502473
thorax -8.125769530779072 0.5580282234722641 0.460400478777165
lowerneck -19.21691163469582 -3.139924530799752 -2.9992447391481716
upperneck 8.490061626499669 -3.7443217274907212 3.687096546617811
head 5.985455156843859 -1.5778393637526738 1.2136913319004956
lclavicle -1.5441360242016598e-15 -3.2960239136150383e-15
lhumerus -48.02343802100857 -8.836881270854132 91.4780930271469
lradius 102.17607700795648
lwrist 26.611006004841713
lhand -24.7759028990417 3.4216098746319403
lfingers 7.12502
lthumb 2.7130370526794145 34.26730090763161
rclavicle -1.5381647133234825e-15 -3.292667261707663e-15
rhumerus -52.45186810139932 6.287105888955474 -96.97771677542816
rradius 109.2382130466201
rwrist -23.86163676061593
rhand -18.987432457926726 38.52549038829939
rfingers 7.12502
rthumb 6.854983977375776 8.810422435074795
50
root 0.7408845038465589 17.24301352404537 16.1336179017394 5.179163111729237 -8.510488553290863 -7.212497831625793
lfemur -20.080892348888774 10.281774287660303 -9.009500139964581
ltibia 108.3111076486754
lfoot 4.953544728726526 -7.9586621551931
ltoes -3.880941139532778
rfemur -18.581780585258727 8.959414748136782 37.46821999142874
rtibia 57.34578051242524
rfoot -21.574272966446532 -16.181832816316593
rtoes 0.48421907727959024
lowerback 15.969235335626877 0.3854110477465101 5.290614836333761
upperback -0.4674389620544886 1.7541543187109006 3.6948154786218943
thorax -8.593856416567181 0.7302651719187837 0.3868633168126799
lowerneck -19.19231236100248 -3.2194035361942293 -2.9732422459989136
upperneck 8.470785811110526 -3.900459798755003 3.807709548574131
head 6.070041124891693 -1.6396716671916554 1.2247644065514205
lclavicle -1.5446460628033266e-15 -3.296385900075303e-15
lhumerus -49.843581932966835 -8.570589239771266 91.92900606976916
lradius 103.09614735349778
lwrist 26.784235487996263
lhand -23.92271569340686 2.959733046669476
lfingers 7.12502
lthumb 3.011598892910045 33.61776331164425
rclavicle -1.5380954206923543e-15 -3.2922690372204627e-15
rhumerus -49.532541080538394 8.550816479265453 -97.25682205428656
rradius 109.70606240240566
rwrist -23.111859255124827
rhand -18.89203671314649 38.26517322250995
rfingers 7.12502
rthumb 6.851937384482378 8.196808672653152
51
root 0.7577505844094813 17.31390651746522 17.00831096457275 5.504886203809504 -5.991307876873604 -5.852282477837183
lfemur -24.766091659137693 7.574534987269625 -11.074589669180469
ltibia 108.64561158475672
lfoot 3.4417620988366266 -6.442445369932526
ltoes -3.1979904399812167
rfemur -16.070541481846472 6.9547230234759105 35.583857414761624
rtibia 56.40452513494982
rfoot -22.6266073077738 -16.338091159738404
rtoes -3.916414620597177
lowerback 14.897023351096543 0.14855021039304706 4.252226118092505
upperback -0.5322317399935627 1.171597152881405 3.098794084578439
thorax -8.22274145137321 0.45657918671141234 0.6535221720453961
lowerneck -19.14000926443153 -3.4042478644604506 -2.948201802831933
upperneck 8.263117076206036 -4.196101754967982 4.054718093369591
head 5.950651990247513 -1.7795095493843363 1.2627907638164584
lclavicle -1.5438972524365413e-15 -3.2957899017415843e-15
lhumerus -51.69065542425877 -8.244261223821884 92.06916481736363
lradius 104.60391796467574
lwrist 28.887302320849823
lhand -24.38700394190511 3.584007983040361
lfingers 7.12502
lthumb 2.42957229729327 33.84862264321879
rclavicle -1.5380403990388412e-15 -3.2924452977619615e-15
rhumerus -46.73962643770832 10.9281819563329 -97.44744779834677
rradius 111.22792214081986
rwrist -23.152084207386263
rhand -19.107765449952616 38.63302183866554
rfingers 7.12502
rthumb 6.835254776968082 8.053387386291025
52
root 0.7874262055268587 17.45020054482858 18.043470011156234 6.186382238265892 -5.182383450643844 -5.688672301609941
lfemur -28.58647821046359 7.287587393350502 -11.33690315566443
ltibia 106.96889415190053
lfoot 1.0838744084077336 -4.640993356869875
ltoes -9.736686601634016
rfemur -12.848914223570516 6.858682518630832 35.394687365608874
rtibia 54.37916681492075
rfoot -21.816430432307463 -15.515206365620045
rtoes -6.464383289298951
lowerback 13.75187381737122 0.3240541617045226 4.4383627771516405
upperback -0.8809932782116152 1.3395411119151306 2.8246699245394042
thorax -8.03458353354621 0.5255902949226998 0.40543748492041276
lowerneck -19.105554356720024 -3.6759033401517565 -3.03730853979199
upperneck 8.471754716722076 -4.574837850781355 4.416251750576748
head 6.030053433127772 -1.9365060536562284 1.3564362911713799
lclavicle -1.5413416202715794e-15 -3.2939361067124395e-15
lhumerus -53.34813572773206 -8.231645786443659 92.5258919038239
lradius 106.23720213800007
lwrist 30.787887971473577
lhand -25.265622508403478 4.098567879162651
lfingers 7.12502
lthumb 1.398514482919822 34.127399458381824
rclavicle -1.5381017503820676e-15 -3.292273264756518e-15
rhumerus -44.708709642900544 12.785713877959969 -97.3779534350897
rradius 113.53900104474371
rwrist -23.48595408812441
rhand -18.775114743316056 38.6241893447886
rfingers 7.12502
rthumb 6.9631013747774615 8.754137890013622
